# xmcd
#
# Track frame offsets: 
#        150
#        2117
#        28448
#        49990
#        65986
#        82816
#        101240
#        120109
#        147895
#
# Disc length: 2061 seconds
#
# Revision: 0
# Processed by: cddbd v1.5.2PL0 Copyright (c) Steve Scherf et al.
# Submitted via: ExactAudioCopyFreeDBPlugin 1.0
#
DISCID=7a080b09
DTITLE=BRIGHT - In Harmony
DYEAR=2010
DGENRE=R&B
TTITLE0=Xiao Yin
TTITLE1=あの日の雨
TTITLE2=Flower
TTITLE3=Baby Sweet
TTITLE4=Shining Star
TTITLE5=キライ…でも好き 〜アイシテル〜
TTITLE6=Brightest Star 〜A Cappella Version〜
TTITLE7=I’ll Be There 〜Symphony Orchestra Session〜
TTITLE8=Curtain Call 〜I'll Be There〜
EXTD=
EXTT0=
EXTT1=
EXTT2=
EXTT3=
EXTT4=
EXTT5=
EXTT6=
EXTT7=
EXTT8=
PLAYORDER=
